<?xml version="1.0" encoding="utf-8"?>
<!-- Generator: Adobe Illustrator 16.0.0, SVG Export Plug-In . SVG Version: 6.00 Build 0)  -->
<!DOCTYPE svg PUBLIC "-//W3C//DTD SVG 1.1//EN" "http://www.w3.org/Graphics/SVG/1.1/DTD/svg11.dtd">
<svg version="1.1" id="Galaxy_UpcyCling" xmlns="http://www.w3.org/2000/svg" xmlns:xlink="http://www.w3.org/1999/xlink" x="0px"
	 y="0px" width="668px" height="52px" viewBox="0 0 668 52" enable-background="new 0 0 668 52" xml:space="preserve">
<g>
	<path fill="#FFFFFF" d="M23.068,23.84h18.411v25.057c-3.011,0.979-5.903,1.672-8.675,2.082c-2.772,0.409-5.766,0.614-8.983,0.614
		c-7.574,0-13.414-2.235-17.521-6.708c-4.106-4.472-6.16-10.781-6.16-18.929c0-8.033,2.315-14.32,6.947-18.86
		c4.631-4.54,11.007-6.811,19.129-6.811c5.224,0,10.175,1.002,14.852,3.004l-2.875,6.793c-4.061-1.866-8.122-2.799-12.182-2.799
		c-5.338,0-9.56,1.673-12.662,5.018c-3.103,3.346-4.654,7.92-4.654,13.723c0,6.1,1.397,10.736,4.192,13.911
		c2.794,3.175,6.815,4.762,12.063,4.762c2.646,0,5.475-0.33,8.487-0.99V30.838H23.068V23.84z"/>
	<path fill="#FFFFFF" d="M84.642,50.91l-4.996-13.859H60.517L55.624,50.91H47L65.718,0.797h8.897L93.334,50.91H84.642z
		 M77.49,30.019l-4.688-13.586c-0.342-0.91-0.816-2.344-1.42-4.301c-0.605-1.957-1.021-3.391-1.249-4.301
		c-0.616,2.799-1.518,5.86-2.704,9.183l-4.517,13.006H77.49z"/>
	<path fill="#FFFFFF" d="M99.604,50.91V1.002h8.179v42.91h21.182v6.998H99.604z"/>
	<path fill="#FFFFFF" d="M168.642,50.91l-4.996-13.859h-19.129l-4.894,13.859H131l18.718-50.113h8.897l18.718,50.113H168.642z
		 M161.49,30.019l-4.688-13.586c-0.342-0.91-0.816-2.344-1.42-4.301c-0.605-1.957-1.021-3.391-1.249-4.301
		c-0.616,2.799-1.518,5.86-2.704,9.183l-4.517,13.006H161.49z"/>
	<path fill="#FFFFFF" d="M220.459,50.91h-9.411l-12.524-20.414L185.897,50.91h-8.761l16.597-25.875L178.198,1.002h9.103
		l11.566,18.877l11.566-18.877h8.829l-15.639,24.168L220.459,50.91z"/>
	<path fill="#FFFFFF" d="M241.737,23.771l11.84-22.769h8.897L245.81,31.555V50.91h-8.213V31.828L221,1.002h8.897L241.737,23.771z"/>
	<path fill="#FFFFFF" d="M325.821,1.002v32.293c0,3.687-0.793,6.912-2.378,9.678c-1.586,2.765-3.878,4.893-6.878,6.384
		c-3,1.49-6.587,2.235-10.762,2.235c-6.206,0-11.03-1.639-14.475-4.916c-3.445-3.276-5.167-7.783-5.167-13.518V1.002h8.213v31.577
		c0,4.119,0.958,7.157,2.875,9.114c1.916,1.957,4.859,2.936,8.829,2.936c7.711,0,11.566-4.039,11.566-12.118V1.002H325.821z"/>
	<path fill="#FFFFFF" d="M371.729,16.091c0,5.211-1.711,9.206-5.133,11.981c-3.422,2.777-8.293,4.165-14.612,4.165h-5.201V50.91
		h-8.179V1.002h14.406c6.251,0,10.934,1.274,14.048,3.823S371.729,11.129,371.729,16.091z M346.783,25.376h4.346
		c4.197,0,7.277-0.728,9.239-2.185c1.962-1.456,2.943-3.732,2.943-6.827c0-2.868-0.879-5.006-2.635-6.417
		c-1.757-1.411-4.495-2.117-8.213-2.117h-5.681V25.376z"/>
	<path fill="#FFFFFF" d="M402.89,7.283c-4.7,0-8.396,1.662-11.088,4.984c-2.691,3.323-4.038,7.908-4.038,13.757
		c0,6.122,1.295,10.753,3.885,13.894c2.589,3.141,6.336,4.711,11.241,4.711c2.121,0,4.175-0.21,6.159-0.632
		c1.985-0.421,4.05-0.961,6.194-1.621v6.998c-3.925,1.479-8.373,2.219-13.346,2.219c-7.323,0-12.947-2.213-16.871-6.64
		c-3.924-4.426-5.886-10.758-5.886-18.997c0-5.188,0.952-9.729,2.857-13.621c1.904-3.892,4.659-6.873,8.264-8.944
		c3.604-2.07,7.837-3.106,12.696-3.106c5.109,0,9.832,1.07,14.167,3.209l-2.943,6.793c-1.688-0.796-3.473-1.497-5.355-2.1
		C406.944,7.585,404.965,7.283,402.89,7.283z"/>
	<path fill="#FFFFFF" d="M439.737,23.771l11.84-22.769h8.897L443.81,31.555V50.91h-8.213V31.828L419,1.002h8.897L439.737,23.771z"/>
	<path fill="#FFFFFF" d="M487.89,7.283c-4.7,0-8.396,1.662-11.088,4.984c-2.691,3.323-4.038,7.908-4.038,13.757
		c0,6.122,1.295,10.753,3.885,13.894c2.589,3.141,6.336,4.711,11.241,4.711c2.121,0,4.175-0.21,6.159-0.632
		c1.985-0.421,4.05-0.961,6.194-1.621v6.998c-3.925,1.479-8.373,2.219-13.346,2.219c-7.323,0-12.947-2.213-16.871-6.64
		c-3.924-4.426-5.886-10.758-5.886-18.997c0-5.188,0.952-9.729,2.857-13.621c1.904-3.892,4.659-6.873,8.264-8.944
		c3.604-2.07,7.837-3.106,12.696-3.106c5.109,0,9.832,1.07,14.167,3.209l-2.943,6.793c-1.688-0.796-3.473-1.497-5.355-2.1
		C491.944,7.585,489.965,7.283,487.89,7.283z"/>
	<path fill="#FFFFFF" d="M510.604,50.91V1.002h8.179v42.91h21.182v6.998H510.604z"/>
	<path fill="#FFFFFF" d="M548.604,50.91V1.002h8.179V50.91H548.604z"/>
	<path fill="#FFFFFF" d="M611.284,50.91h-10.026l-24.604-39.77h-0.274l0.171,2.219c0.319,4.233,0.479,8.102,0.479,11.606V50.91
		h-7.426V1.002h9.924l24.536,39.564h0.205c-0.046-0.522-0.137-2.429-0.273-5.718c-0.138-3.288-0.206-5.854-0.206-7.697V1.002h7.494
		V50.91z"/>
	<path fill="#FFFFFF" d="M645.068,23.84h18.41v25.057c-3.012,0.979-5.903,1.672-8.675,2.082c-2.771,0.409-5.766,0.614-8.982,0.614
		c-7.575,0-13.415-2.235-17.521-6.708c-4.106-4.472-6.159-10.781-6.159-18.929c0-8.033,2.315-14.32,6.946-18.86
		s11.008-6.811,19.13-6.811c5.224,0,10.174,1.002,14.851,3.004l-2.874,6.793c-4.061-1.866-8.122-2.799-12.183-2.799
		c-5.338,0-9.559,1.673-12.661,5.018c-3.103,3.346-4.654,7.92-4.654,13.723c0,6.1,1.397,10.736,4.192,13.911
		c2.794,3.175,6.815,4.762,12.063,4.762c2.646,0,5.476-0.33,8.486-0.99V30.838h-10.368V23.84z"/>
</g>
</svg>
