<?xml version="1.0" standalone="no"?>
<!DOCTYPE svg PUBLIC "-//W3C//DTD SVG 1.1//EN" "http://www.w3.org/Graphics/SVG/1.1/DTD/svg11.dtd" >
<svg xmlns="http://www.w3.org/2000/svg">
<metadata>Generated by IcoMoon</metadata>
<defs>
<font id="icomoon" horiz-adv-x="1024">
<font-face units-per-em="1024" ascent="960" descent="-64" />
<missing-glyph horiz-adv-x="1024" />
<glyph unicode="&#x20;" horiz-adv-x="512" d="" />
<glyph unicode="&#xe900;" glyph-name="tabline" horiz-adv-x="189" d="M181.895 434.526l-181.895 525.474h6.737l181.895-525.474-181.895-498.526h-6.737z" />
<glyph unicode="&#xe901;" glyph-name="coupon" horiz-adv-x="1582" d="M1551.073-64.207h-1076.807l-63.396 64.397-63.362-64.397h-316.258c-17.536 0.136-31.699 14.383-31.699 31.939 0 0.097 0 0.195 0.001 0.292v959.933c-0.001 0.082-0.001 0.18-0.001 0.277 0 17.562 14.159 31.817 31.685 31.973h316.272l63.362-64.466 63.396 64.466h1076.807c17.521-0.155 31.665-14.395 31.665-31.938 0-0.11-0.001-0.219-0.002-0.328v-959.932c0.001-0.093 0.002-0.202 0.002-0.311 0-17.536-14.148-31.768-31.652-31.904zM1457.289 833.656h-956.775l-89.679-91.197-89.679 91.197h-196.122v-771.38h196.225l89.679 91.266 89.679-91.266h956.775v771.38zM854.541 706.035c0.657 0.012 1.431 0.019 2.207 0.019 71.226 0 128.966-57.74 128.966-128.966s-57.74-128.966-128.966-128.966c-71.219 0-128.955 57.729-128.966 128.946-0.002 0.289-0.004 0.63-0.004 0.972 0 70.229 56.62 127.234 126.703 127.857zM854.541 512.604c0.318-0.006 0.693-0.009 1.069-0.009 35.603 0 64.466 28.862 64.466 64.466s-28.862 64.466-64.466 64.466c-35.6 0-64.461-28.857-64.466-64.456-0.002-0.176-0.003-0.383-0.003-0.59 0-35.138 28.31-63.665 63.366-64.014zM1180.697 696.584c5.7 5.824 13.636 9.438 22.417 9.451 17.528-0.175 31.667-14.423 31.667-31.973 0-0.098 0-0.195-0.001-0.292 0-0.025 0-0.073 0-0.12 0-8.831-3.542-16.835-9.283-22.668l-443.598-451.497c-5.712-5.805-13.641-9.413-22.413-9.451-17.556 0.194-31.707 14.465-31.707 32.041 0 0.098 0 0.195 0.001 0.293 0-0.004 0 0.010 0 0.023 0 8.84 3.541 16.853 9.283 22.697zM1108.057 448.241c0.657 0.012 1.431 0.019 2.207 0.019 71.245 0 129-57.755 129-129s-57.755-129-129-129c-71.245 0-129 57.755-129 129 0 0.018 0 0.035 0 0.053-0.002 0.244-0.003 0.537-0.003 0.829 0 70.241 56.639 127.254 126.738 127.857zM1108.057 254.81c0.318-0.006 0.693-0.009 1.069-0.009 35.603 0 64.466 28.862 64.466 64.466s-28.862 64.466-64.466 64.466c-35.588 0-64.441-28.837-64.466-64.42-0.003-0.239-0.005-0.518-0.005-0.798 0-35.125 28.32-63.636 63.372-63.946zM410.869 222.594c-0.154-0.003-0.335-0.004-0.517-0.004-17.792 0-32.216 14.423-32.216 32.216s14.423 32.216 32.216 32.216c17.791 0 32.213-14.421 32.216-32.211 0.003-0.154 0.004-0.336 0.004-0.518 0-17.556-14.165-31.804-31.69-31.939zM410.869 351.526c-0.164-0.003-0.358-0.005-0.552-0.005-17.811 0-32.25 14.439-32.25 32.25s14.439 32.25 32.25 32.25c17.811 0 32.25-14.439 32.25-32.25 0-0.023 0-0.045 0-0.068 0.001-0.089 0.002-0.199 0.002-0.308 0-17.562-14.159-31.818-31.685-31.973zM410.869 480.457c-0.164-0.003-0.358-0.005-0.552-0.005-17.811 0-32.25 14.439-32.25 32.25s14.439 32.25 32.25 32.25c17.81 0 32.247-14.436 32.25-32.245 0.002-0.144 0.004-0.314 0.004-0.485 0-17.57-14.156-31.834-31.685-32.007zM410.869 609.423c-0.164-0.003-0.358-0.005-0.552-0.005-17.811 0-32.25 14.439-32.25 32.25s14.439 32.25 32.25 32.25c17.811 0 32.25-14.439 32.25-32.25 0-0.010 0-0.021 0-0.031 0.002-0.142 0.004-0.312 0.004-0.482 0-17.563-14.161-31.819-31.687-31.973z" />
<glyph unicode="&#xe902;" glyph-name="exchange_rate" horiz-adv-x="1161" d="M1157.879 624.988l-92.109-182.348c-4.897-9.553-14.678-15.978-25.959-15.978-4.79 0-9.309 1.158-13.293 3.21l-181.881 92.21c-9.547 4.92-15.962 14.71-15.962 25.998 0 4.803 1.162 9.336 3.22 13.331l13.071 25.854c4.889 9.557 14.668 15.986 25.948 15.986 4.795 0 9.318-1.161 13.304-3.218l84.058-42.628c-47.738 182.423-210.978 314.888-405.198 315.139-184.85-0.588-341.417-120.892-396.294-287.403-4.713-14.781-15.645-23.17-28.537-23.17-3.187 0-6.254 0.513-9.124 1.46l-27.607 8.892c-11.804 3.908-20.17 14.844-20.17 27.734 0 3.2 0.515 6.279 1.468 9.159 67.197 204.945 256.949 350.495 480.696 350.495 227.154 0 419.269-150.015 482.679-356.378l33.815 61.226c4.889 9.557 14.668 15.986 25.948 15.986 4.795 0 9.318-1.161 13.304-3.218l25.804-13.071c9.552-4.946 15.968-14.755 15.968-26.063 0-4.816-1.164-9.361-3.226-13.367zM602.719 484.207c49.632-15.17 124.65-37.926 123.891-124.094 0-54.79-38.786-95.472-101.818-107.533v-46.573c0 0 0 0 0 0 0-4.823-3.902-8.734-8.722-8.748h-66.852c-4.821 0.014-8.723 3.926-8.723 8.748 0 0 0 0 0 0v48.292c-35.598 8.373-66.246 26.041-90.248 50.299l-13.012 13.771c-1.485 1.565-2.398 3.684-2.398 6.017 0 2.497 1.046 4.749 2.723 6.343l48.6 46.096c1.559 1.476 3.67 2.384 5.993 2.384 2.499 0 4.752-1.051 6.342-2.734l13-13.759c18.951-18.102 44.683-29.245 73.018-29.254 21.468 0 57.801 5.689 57.776 26.978 0.152 18.407-7.813 25.79-64.019 42.856-48.040 14.589-128.569 39.013-128.569 129.783 1.49 53.073 39.704 96.803 90.059 106.758l0.711 50.002c0 0 0 0 0 0 0 4.823 3.902 8.734 8.722 8.748h66.953c4.821-0.014 8.723-3.926 8.723-8.748 0 0 0 0 0 0v-45.258c29.441-4.137 55.919-14.014 79.245-28.489l15.013-9.791c2.391-1.587 3.946-4.268 3.946-7.312 0-1.775-0.529-3.427-1.438-4.807l-36.287-56.274c-1.588-2.384-4.265-3.934-7.305-3.934-1.768 0-3.413 0.524-4.789 1.426l-15.845 10.27c-18.065 10.396-39.691 16.601-62.751 16.788-22.557 0-60.736-6.169-60.736-29.304 0.152-21.719 9.153-30.796 68.798-48.874zM134.814 466.053l182.044-92.286c9.542-4.929 15.953-14.72 15.953-26.009 0-4.799-1.158-9.327-3.211-13.32l-13.071-25.853c-4.889-9.557-14.668-15.986-25.948-15.986-4.795 0-9.318 1.161-13.304 3.218l-84.058 42.628c47.795-182.359 211.017-314.754 405.199-314.987 184.851 0.58 341.423 120.887 396.293 287.403 4.723 14.778 15.659 23.164 28.553 23.164 3.181 0 6.243-0.51 9.108-1.454l27.607-8.892c11.799-3.929 20.157-14.872 20.157-27.766 0-3.187-0.511-6.256-1.455-9.127-67.197-204.945-256.949-350.495-480.697-350.495-227.154 0-419.269 150.015-482.679 356.378l-33.689-61.226c-4.889-9.557-14.668-15.986-25.948-15.986-4.795 0-9.318 1.161-13.304 3.218l-25.804 13.071c-9.542 4.929-15.953 14.72-15.953 26.009 0 4.799 1.158 9.327 3.211 13.32l92.033 182.184c4.903 9.536 14.674 15.947 25.943 15.947 4.746 0 9.227-1.137 13.184-3.154z" />
<glyph unicode="&#xe903;" glyph-name="send" horiz-adv-x="1290" d="M1279.563 134.219l-187.416-187.5c-6.678-6.809-15.974-11.029-26.256-11.029s-19.578 4.22-26.25 11.023c-6.724 6.824-10.872 16.191-10.872 26.526s4.148 19.701 10.871 26.525l124.319 123.098h-173.92c-4.004-85.647-74.272-153.607-160.479-153.898h-668.579c-89.010 0.174-161.116 72.299-161.257 161.299v668.786c0.142 89.014 72.248 161.139 161.241 161.313h668.567c89.010-0.174 161.116-72.299 161.257-161.299v-600.807h173.476l-124.324 123.408c-6.718 6.818-10.867 16.185-10.867 26.52s4.148 19.701 10.871 26.525c6.614 6.808 15.863 11.036 26.099 11.036s19.485-4.228 26.095-11.032l187.425-187.508c6.715-6.81 10.862-16.167 10.862-26.492s-4.147-19.683-10.866-26.496zM892.761 799.076c-0.063 34.902-28.332 63.18-63.224 63.259h-668.558c-34.888-0.095-63.14-28.367-63.203-63.253v-668.806c0.063-34.892 28.316-63.164 63.194-63.259h668.56c34.9 0.079 63.168 28.357 63.231 63.253v668.779zM527.926 489.668c55.317-17.273 138.847-43.348 138.125-142.208 0-62.759-43.237-109.384-113.466-123.185v-53.373c0.001-0.042 0.001-0.091 0.001-0.14 0-5.402-4.332-9.791-9.712-9.884h-74.625c-5.388 0.093-9.72 4.483-9.72 9.885 0 0.049 0 0.099 0.001 0.148v55.226c-39.839 9.713-74.021 29.956-100.541 57.606l-14.564 15.845c-1.651 1.809-2.662 4.226-2.662 6.879 0 2.851 1.167 5.428 3.050 7.282l54.152 52.763c1.726 1.739 4.117 2.815 6.76 2.815 2.83 0 5.372-1.234 7.116-3.194l14.504-15.783c20.914-20.649 49.638-33.43 81.348-33.518 23.927 0 64.414 6.526 64.414 30.935 0.167 21.077-8.692 29.547-71.368 49.096-53.595 16.662-143.263 44.681-143.263 148.706 1.069 60.163 43.686 110.071 100.326 122.312l0.839 57.302c-0.001 0.042-0.001 0.091-0.001 0.14 0 5.402 4.332 9.791 9.712 9.884h74.57c5.388-0.093 9.72-4.483 9.72-9.885 0-0.049 0-0.099-0.001-0.148v-51.866c32.872-4.751 62.377-16.057 88.226-32.579l16.798-11.242c2.663-1.871 4.381-4.928 4.381-8.388 0-2.041-0.598-3.942-1.629-5.537l-40.436-64.496c-1.708-2.759-4.717-4.57-8.15-4.57-1.971 0-3.803 0.597-5.324 1.62l-17.655 11.753c-20.056 11.884-44.164 18.993-69.915 19.216-25.056 0-67.571-7.053-67.571-33.545 0.056-24.854 10.108-35.239 76.56-55.872z" />
<glyph unicode="&#xe904;" glyph-name="help" d="M512 960c-282.77 0-512-229.23-512-512s229.23-512 512-512c282.77 0 512 229.23 512 512-0.854 282.426-229.574 511.146-511.918 512zM569.615 128h-128.030v128h128.030v-128zM704 441.585c-20.362-21.249-46.401-36.906-75.679-44.537-39.521-25.848-52.321-13.048-52.321-77.048h-128c0 128 76.8 166.4 128 192 17.557 4.905 32.651 13.778 44.84 25.624 7.414 6.223 12.109 15.528 12.109 25.929 0 7.035-2.148 13.569-5.824 18.981-18.707 38.174-57.41 64.071-102.161 64.071-2.304 0-4.591-0.069-6.861-0.204-89.287 0.015-102.087-76.815-108.502-96l-128 19.185c10.416 115.267 106.574 204.901 223.668 204.901 2.367 0 4.726-0.037 7.076-0.109 0.868 0.029 2.297 0.041 3.729 0.041 98.744 0 184.233-56.747 225.637-139.407 9.082-21.326 13.977-44.434 13.977-68.685 0-48.717-19.752-92.821-51.685-124.74z" />
<glyph unicode="&#xe905;" glyph-name="menu" horiz-adv-x="1365" d="M0 960h1365.333v-136.533h-1365.333v136.533zM0 516.267h1365.333v-136.533h-1365.333v136.533zM0 72.533h1365.333v-136.533h-1365.333v136.533z" />
<glyph unicode="&#xe906;" glyph-name="notice" horiz-adv-x="1199" d="M1156.91 117.501h-683.207l-227.040-173.558c-7.178-5.16-16.132-8.269-25.81-8.317-0.276-0.006-0.587-0.010-0.899-0.010-6.487 0-12.613 1.546-18.029 4.289-13.952 7.048-23.507 21.495-23.507 38.175 0 0.055 0 0.111 0 0.166v140.159h-136.243c-23.399 0.177-42.299 19.186-42.299 42.61 0 0 0 0.001 0 0.001v756.779c-0.003 0.186-0.005 0.405-0.005 0.624 0 23.189 18.799 41.988 41.988 41.988 0.111 0 0.222 0 0.333-0.001h1114.593c0.094 0.001 0.205 0.001 0.316 0.001 23.189 0 41.988-18.799 41.988-41.988 0-0.219-0.002-0.439-0.005-0.657v-757.649c0.003-0.185 0.005-0.404 0.005-0.623 0-23.189-18.799-41.988-41.988-41.988-0.067 0-0.135 0-0.202 0zM1113.551 875.183h-1028.921v-671.401h136.211c0.094 0.001 0.205 0.001 0.316 0.001 23.206 0 42.019-18.813 42.019-42.019 0-0.209-0.002-0.417-0.005-0.624v-96.528l170.288 130.823c7.169 5.156 16.112 8.264 25.778 8.317h654.314v671.433zM252.831 436.584c-0.003 0.176-0.004 0.385-0.004 0.593 0 23.206 18.813 42.019 42.019 42.019 0.111 0 0.222 0 0.333-0.001h608.87c23.533 0 42.611-19.078 42.611-42.611s-19.078-42.611-42.611-42.611h-608.887c-0.094-0.001-0.205-0.001-0.316-0.001-23.206 0-42.019 18.813-42.019 42.019 0 0.209 0.002 0.417 0.005 0.624zM904.048 599.77h-608.887c-23.533 0-42.611 19.078-42.611 42.611s19.078 42.611 42.611 42.611h608.887c23.533 0 42.611-19.078 42.611-42.611s-19.078-42.611-42.611-42.611z" />
<glyph unicode="&#xe907;" glyph-name="info" d="M460.8 192h102.4v307.2h-102.4v-307.2zM512 960c-282.77 0-512-229.23-512-512s229.23-512 512-512c282.77 0 512 229.23 512 512-0.847 282.428-229.572 511.153-511.919 512zM512 19.387c-236.717 0-428.613 191.897-428.613 428.613s191.897 428.613 428.613 428.613c236.717 0 428.613-191.897 428.613-428.613-0.706-236.432-192.181-427.907-428.546-428.613zM460.8 601.6h102.4v102.4h-102.4v-102.4z" />
<glyph unicode="&#xe908;" glyph-name="add_person" horiz-adv-x="1365" d="M1290.264 11.288c-46.327-46.325-110.325-74.977-181.016-74.977-62.016 0-118.881 22.052-163.183 58.742-8.823-6.425-20.154-10.058-32.331-10.096h-852.783c-33.663 0-60.952 27.289-60.952 60.952v91.477c0 33.768 60.952 60.952 60.952 60.952l267.654 126.318c-85.333 68.413-115.614 203.069-115.614 269.605v152.308c0 100.888 139.825 213.211 274.408 213.211s274.213-112.323 274.213-213.211v-152.283c0-73.143-28.574-203.678-113.006-270.141l207.238-98.231c16.985 126.395 124.151 222.835 253.843 222.835 141.385 0 256-114.615 256-256 0-70.912-28.832-135.090-75.413-181.451zM623.104 268.702c-21.106 9.886-35.463 30.95-35.463 55.367 0 19.381 9.046 36.65 23.146 47.814 65.517 51.59 89.898 163.742 89.898 222.354v152.308c0 65.073-109.714 152.259-213.26 152.259-102.595 0-213.455-88.576-213.455-152.259v-152.259c0-59.49 29.501-171.252 92.818-222.086 13.941-11.264 22.783-28.36 22.783-47.522 0-24.416-14.356-45.479-35.088-55.209l-268.027-126.451c-14.895-4.915-25.454-18.707-25.454-34.965 0-0.076 0-0.152 0.001-0.228v-61.843h838.412c-22.396 31.701-37.903 69.817-43.519 111.078l-199.876 96.038zM1256.497 211.042c0 6.733-5.458 12.19-12.19 12.19h-104.838v104.838c0 6.733-5.458 12.19-12.19 12.19h-36.962c-0.007 0-0.016 0-0.025 0-6.757 0-12.243-5.443-12.312-12.184v-104.845h-104.838c-0.036 0-0.079 0.001-0.122 0.001-6.733 0-12.19-5.458-12.19-12.19 0 0 0 0 0-0.001v-36.986c0 0 0 0 0-0.001 0-6.733 5.458-12.19 12.19-12.19 0.043 0 0.086 0 0.128 0.001h104.832v-104.838c0.083-6.75 5.574-12.19 12.336-12.19 0 0 0.001 0 0.001 0h36.961c6.733 0 12.19 5.458 12.19 12.19v104.838h104.838c0 0 0.001 0 0.001 0 6.762 0 12.253 5.44 12.336 12.183v36.994z" />
<glyph unicode="&#xe909;" glyph-name="alert" d="M512-64c-282.77 0-512 229.23-512 512s229.23 512 512 512c282.77 0 512-229.23 512-512s-229.23-512-512-512zM512 867.26c-231.559-0.039-419.26-187.763-419.26-419.328 0-231.588 187.74-419.328 419.328-419.328s419.328 187.74 419.328 419.328c0 0.024 0 0.048 0 0.072-0.039 231.555-187.763 419.256-419.328 419.256-0.024 0-0.048 0-0.072 0zM460.8 294.4v456.124h103.424l-1.024-456.124h-102.4zM563.2 140.8h-102.4v102.4h102.4v-102.4z" />
<glyph unicode="&#xe90a;" d="M1024 448c0-282.8-229.2-512-512-512s-512 229.2-512 512 229.2 512 512 512 512-229.2 512-512z" />
<glyph unicode="&#xe90b;" d="M751.3 680.6c-63.1 62.5-148.3 97.6-237.1 97.6-185.9 0.1-336.6-150.5-336.7-336.4 0-88.9 35.1-174.2 97.7-237.2 0.3-0.4 0.6-0.8 1-1.2s0.8-0.6 1.2-0.9c132-130.9 345.2-130 476.1 2.1 130.7 132 129.8 345.1-2.2 476v0zM323.1 663.2c53.1 45.7 120.9 70.9 191 70.8 70 0 137.6-25.1 190.5-70.8l-412.2-412.3c-105.4 122.4-91.6 307 30.7 412.3v0zM705.1 219.7c-53.1-45.7-120.9-70.9-191-70.8v0c-69.9 0-137.6 25.1-190.5 70.8l412.3 412.3c105.3-122.3 91.6-306.9-30.8-412.3z" />
<glyph unicode="&#xe90c;" d="M488.6 627.4l7.8-249.6h31.2v249.6h-39zM512 331c17.2 0 31.2-14 31.2-31.2s-14-31.2-31.2-31.2c-17.2 0-31.2 14-31.2 31.2s14 31.2 31.2 31.2z" />
<glyph unicode="&#xe90d;" d="M743.3 565.9l-311.7-311.7c-0.1-0.1-0.2-0.3-0.3-0.5l-18.3-18.3c-1.6-1.6-3.7-2.5-6.1-2.5s-4.5 1-6.1 2.5l-158.1 158.2c-1.6 1.6-2.5 3.7-2.5 6.1s1 4.5 2.5 6.1l18.3 18.3c1.6 1.6 3.7 2.5 6.1 2.5s4.5-1 6.1-2.5l133.8-133.8 306 306c1.6 1.6 3.7 2.5 6.1 2.5s4.5-1 6.1-2.5l18.3-18.3c1.5-1.6 2.5-3.7 2.5-6.1-0.2-2.3-1.1-4.5-2.7-6v0 0z" />
<glyph unicode="&#xe90e;" d="M434.2 539.7l-18.3-18.3c-1.6-1.6-3.7-2.5-6.1-2.5s-4.5 1-6.1 2.5l-79.1 79.1c-1.6 1.6-2.5 3.7-2.5 6.1s1 4.5 2.5 6.1l18.3 18.3c1.6 1.6 3.7 2.5 6.1 2.5s4.5-1 6.1-2.5l79.1-79.1c1.6-1.6 2.5-3.7 2.5-6.1s-1-4.5-2.5-6.1v0z" />
<glyph unicode="&#xe90f;" d="M266.8 460.9h111.9c4.8 0 8.6-3.9 8.6-8.6v-25.8c0-4.8-3.9-8.6-8.6-8.6h-111.9c-4.8 0-8.6 3.9-8.6 8.6v25.8c0 4.8 3.8 8.6 8.6 8.6z" />
<glyph unicode="&#xe910;" d="M347.6 248.3l-18.2 18.2c-1.5 1.6-2.5 3.7-2.5 6.1s1 4.5 2.5 6.1l78.9 78.9c1.6 1.5 3.7 2.5 6.1 2.5s4.5-1 6.1-2.5l18.2-18.2c1.5-1.6 2.5-3.7 2.5-6.1s-1-4.5-2.5-6.1l-78.9-78.9c-1.6-1.5-3.7-2.5-6.1-2.5s-4.5 0.9-6.1 2.5v0z" />
<glyph unicode="&#xe911;" d="M499.1 314.6h25.8c4.8 0 8.6-3.9 8.6-8.6v-111.9c0-4.8-3.9-8.6-8.6-8.6h-25.8c-4.8 0-8.6 3.9-8.6 8.6v111.9c0 4.8 3.8 8.6 8.6 8.6v0 0z" />
<glyph unicode="&#xe912;" d="M708 265.9l-18.3-18.3c-1.6-1.6-3.7-2.5-6.1-2.5s-4.5 1-6.1 2.5l-79.1 79.1c-1.6 1.6-2.5 3.7-2.5 6.1s1 4.5 2.5 6.1l18.3 18.3c1.6 1.6 3.7 2.5 6.1 2.5s4.5-1 6.1-2.5l79.1-79.1c1.6-1.6 2.5-3.7 2.5-6.1s-1-4.5-2.5-6.1v0z" />
<glyph unicode="&#xe913;" d="M654 460.9h111.9c4.8 0 8.6-3.9 8.6-8.6v-25.8c0-4.8-3.9-8.6-8.6-8.6h-111.9c-4.8 0-8.6 3.9-8.6 8.6v25.8c0 4.8 3.8 8.6 8.6 8.6v0z" />
<glyph unicode="&#xe914;" glyph-name="exchange" horiz-adv-x="1160" d="M1156.543 624.923l-92.022-182.186c-4.894-9.561-14.676-15.993-25.961-15.998-0.003 0-0.006 0-0.009 0-4.775 0-9.277 1.168-13.236 3.233l-181.711 92.123c-9.53 4.926-15.932 14.707-15.932 25.983 0 4.79 1.155 9.311 3.203 13.298l13.045 25.832c4.901 9.549 14.68 15.969 25.959 15.969 4.787 0 9.304-1.157 13.286-3.205l84.036-42.62c-47.676 182.231-210.744 314.559-404.759 314.799-184.658-0.637-341.052-120.813-395.901-287.145-4.703-14.756-15.613-23.131-28.479-23.131-3.189 0-6.257 0.514-9.127 1.465l-27.475 8.852c-11.788 3.918-20.138 14.846-20.138 27.725 0 3.194 0.513 6.267 1.462 9.143 67.141 204.736 256.705 350.134 480.228 350.134 226.933 0 418.862-149.867 482.215-356.028l33.642 61.19c4.892 9.547 14.664 15.967 25.937 15.967 4.783 0 9.295-1.156 13.274-3.203l25.798-13.080c9.468-4.945 15.82-14.694 15.82-25.926 0-4.813-1.166-9.354-3.232-13.354zM134.403 466.103l181.835-92.198c9.53-4.926 15.932-14.707 15.932-25.983 0-4.79-1.155-9.311-3.203-13.298l-13.045-25.832c-4.901-9.549-14.68-15.969-25.959-15.969-4.787 0-9.304 1.157-13.286 3.205l-84.036 42.62c47.704-182.241 210.795-314.566 404.83-314.799 184.657 0.637 341.051 120.813 395.9 287.145 4.703 14.756 15.613 23.131 28.479 23.131 3.189 0 6.257-0.514 9.127-1.465l27.475-8.852c11.788-3.918 20.138-14.846 20.138-27.725 0-3.194-0.513-6.267-1.462-9.143-67.141-204.736-256.705-350.134-480.228-350.134-226.933 0-418.862 149.867-482.215 356.028l-33.642-61.19c-4.892-9.547-14.664-15.967-25.937-15.967-4.783 0-9.295 1.156-13.274 3.203l-25.798 13.080c-9.528 4.917-15.93 14.691-15.93 25.961 0 4.814 1.168 9.354 3.236 13.354l91.911 181.988c4.896 9.565 14.683 15.998 25.973 15.998 4.809 0 9.345-1.167 13.341-3.234z" />
<glyph unicode="&#xe915;" glyph-name="bell" d="M1008.868 228.21c-120.434 120.462-138.553 180.907-138.553 373.39 0.054 2.328 0.085 5.071 0.085 7.82 0 197.939-160.461 358.4-358.4 358.4s-358.4-160.461-358.4-358.4c0-2.75 0.031-5.492 0.093-8.227-0.007-103.387-2.852-142.128-17.074-189.687-25.589-72.794-67.338-134.434-121.151-182.949-9.661-9.613-15.394-22.416-15.394-36.557 0-28.251 22.881-51.158 51.123-51.2h284.107l-2.588-25.6c0-98.969 80.231-179.2 179.2-179.2s179.2 80.231 179.2 179.2l-2.588 25.6h284.274c28.221 0.074 51.070 22.969 51.070 51.2 0 14.142-5.733 26.944-15.002 36.21zM512-3.129c-61.789 0.016-111.872 50.11-111.872 111.9l2.247 22.357h219.221l2.276-22.357c0-61.791-50.083-111.884-111.87-111.9zM78.933 213.504c144.356 144.384 144.356 240.64 144.356 385.024 0 159.451 129.26 288.711 288.711 288.711s288.711-129.26 288.711-288.711c0-144.384 0-240.64 144.356-385.024h-866.105z" />
<glyph unicode="&#xe916;" glyph-name="setting" d="M971.167 340.508l-71.957-11.984c-8.386-26.929-18.178-50.020-29.926-71.905l43.404-57.286c7.329-10.201 11.72-22.942 11.72-36.709 0-17.494-7.091-33.332-18.556-44.796l-63.654-63.654c-11.438-11.507-27.275-18.628-44.776-18.628-13.77 0-26.511 4.409-36.887 11.892l-59.067 42.244c-19.711-10.673-42.8-20.473-66.854-28.103l-15.093-72.747c-5.146-30.161-31.090-52.833-62.33-52.833-0.057 0-0.114 0-0.17 0h-90.269c-0.033 0-0.072 0-0.111 0-31.245 0-57.195 22.67-62.3 52.458l-12.009 72.331c-26.162 8.116-48.55 17.506-69.815 28.737l-57.908-43.848c-10.083-7.352-22.719-11.762-36.386-11.762-0.071 0-0.141 0-0.212 0-0.005 0-0.024 0-0.042 0-17.454 0-33.246 7.111-44.639 18.594l-63.658 63.658c-11.523 11.432-18.657 27.274-18.657 44.782 0 13.782 4.42 26.531 11.92 36.908l42.023 58.405c-10.877 19.699-20.813 42.707-28.528 66.71l-73.512 15.238c-30.202 5.11-52.917 31.074-52.917 62.344 0 0.14 0 0.279 0.001 0.418v89.924c0 0.033 0 0.072 0 0.111 0 31.245 22.67 57.195 52.458 62.3l71.39 12.037c8.171 26.968 17.834 50.139 29.494 72.088l-43.83 57.96c-7.327 10.197-11.717 22.934-11.717 36.696 0 17.503 7.101 33.347 18.58 44.808l63.959 63.655c11.447 11.489 27.284 18.598 44.781 18.598 13.778 0 26.526-4.408 36.911-11.89l58.624-42.216c19.699 10.877 42.707 20.813 66.71 28.528l15.238 73.512c5.111 30.201 31.075 52.916 62.344 52.916 0.003 0 0.007 0 0.010 0h90.056c0.033 0 0.072 0 0.111 0 31.245 0 57.195-22.67 62.3-52.458l12.009-71.39c27.844-8.484 51.8-18.587 74.449-30.803l57.343 43.423c10.080 7.352 22.713 11.762 36.377 11.762 0.064 0 0.128 0 0.192 0 0.013 0 0.040 0 0.067 0 17.46 0 33.256-7.123 44.642-18.621l63.659-63.659c11.523-11.432 18.657-27.274 18.657-44.782 0-13.782-4.42-26.531-11.92-36.908l-42.244-59.069c10.673-19.704 20.473-42.783 28.103-66.829l72.747-15.091c29.947-4.945 52.508-30.647 52.508-61.618 0-0.327-0.003-0.653-0.008-0.978l0.001-90.008c0-0.040 0-0.087 0-0.134 0-31.24-22.672-57.184-52.459-62.277zM939.617 490.288c0.001 0.034 0.001 0.074 0.001 0.114 0 2.585-1.896 4.728-4.373 5.113l-84.495 14.284c-10.645 1.745-19.079 9.576-21.685 19.741-8.377 32.147-20.359 60.183-35.832 85.879-1.568 2.509-2.974 7.286-2.974 12.39 0 5.892 1.873 11.347 5.057 15.801l49.594 69.688c0.574 0.858 0.916 1.914 0.916 3.050 0 1.466-0.57 2.799-1.5 3.789l-59.943 59.915c-0.97 0.991-2.322 1.605-3.817 1.605-0.001 0-0.001 0-0.002 0-1.131-0.060-2.165-0.423-3.038-1.010l-69.334-49.803c-4.372-3.127-9.826-5.001-15.719-5.001-5.105 0-9.881 1.406-13.963 3.852-24.709 14.841-53.432 26.977-83.875 34.832-12.681 3.223-20.558 11.702-22.364 22.254l-14.082 84.019c-0.402 2.523-2.563 4.428-5.169 4.428-0.022 0-0.043 0-0.065 0h-84.657c-0.018 0-0.040 0-0.062 0-2.606 0-4.766-1.905-5.165-4.399l-14.478-85.105c-1.98-10.519-9.691-18.831-19.704-21.651-32.092-8.485-60.057-20.604-85.641-36.237-2.598-1.574-7.406-2.973-12.541-2.973-5.93 0-11.425 1.865-15.93 5.041l-69.268 49.398c-0.816 0.622-1.85 0.997-2.971 0.997-0.016 0-0.032 0-0.048 0-0.036 0.001-0.082 0.002-0.128 0.002-1.455 0-2.766-0.617-3.686-1.604l-59.948-59.921c-0.927-0.987-1.497-2.32-1.497-3.786 0-1.136 0.342-2.192 0.929-3.070l50.053-70.359c3.192-4.365 5.108-9.84 5.108-15.762 0-5.014-1.373-9.708-3.765-13.725-14.425-24.185-26.222-52.304-33.85-82.092-3.203-12.641-11.685-20.522-22.241-22.321l-84.018-14.082c-2.51-0.414-4.401-2.569-4.401-5.164 0-0.023 0-0.047 0-0.070v-84.629c0-0.020 0-0.043 0-0.066 0-2.596 1.891-4.75 4.37-5.16l85.105-14.479c10.53-1.97 18.855-9.684 21.678-19.704 8.495-32.093 20.603-60.057 36.213-85.651 1.578-2.593 2.981-7.409 2.981-12.553 0-5.921-1.86-11.408-5.026-15.909l-49.425-69.267c-0.567-0.855-0.905-1.904-0.905-3.033 0-1.474 0.576-2.814 1.516-3.806l59.915-59.915c0.973-0.989 2.324-1.602 3.819-1.605 1.132 0.051 2.169 0.416 3.037 1.009l70.359 50.052c4.297 3.148 9.689 5.038 15.521 5.038 0.060 0 0.12 0 0.18-0.001 5.020-0.016 9.731-1.36 13.798-3.697 23.582-13.866 51.002-25.426 79.975-33.188 12.637-3.237 20.427-11.629 22.211-22.071l14.109-84.626c0.39-2.521 2.545-4.429 5.145-4.429 0.030 0 0.060 0 0.090 0.001h84.655c0.017 0 0.038 0 0.058 0 2.6 0 4.755 1.907 5.141 4.399l14.284 84.495c1.741 10.64 9.575 19.068 19.742 21.658 32.147 8.391 60.182 20.371 85.885 35.834 2.507 1.583 7.292 2.999 12.409 2.999 5.884 0 11.33-1.874 15.775-5.057l69.689-49.761c0.81-0.622 1.837-0.997 2.952-0.997 0.023 0 0.045 0 0.068 0 0.028-0.001 0.066-0.001 0.104-0.001 1.462 0 2.781 0.616 3.71 1.604l59.92 59.92c0.937 0.989 1.514 2.329 1.514 3.803 0 1.128-0.338 2.178-0.918 3.053l-49.803 69.971c-3.118 4.367-4.986 9.814-4.986 15.697 0 5.113 1.411 9.897 3.864 13.983 14.601 24.124 26.583 52.161 34.412 81.883 3.229 12.536 11.624 20.32 22.066 22.114l84.599 14.11c2.519 0.377 4.429 2.526 4.429 5.121 0 0.038 0 0.077-0.001 0.115l0.194-0.006v84.632zM512 227.148c-122.022 0.016-220.935 98.938-220.935 220.963 0 122.034 98.928 220.963 220.963 220.963s220.963-98.928 220.963-220.963c-0.063-122.019-98.97-220.915-220.986-220.963zM512 601.517c-0.008 0-0.018 0-0.028 0-84.739 0-153.434-68.695-153.434-153.434s68.695-153.434 153.434-153.434c84.739 0 153.434 68.695 153.434 153.434 0 0.010 0 0.020 0 0.029-0.063 84.697-68.708 153.342-153.4 153.405z" />
<glyph unicode="&#xe917;" glyph-name="calendar" horiz-adv-x="914" d="M841.143-64h-768c-40.396 0-73.143 32.747-73.143 73.143v804.571c0 40.396 32.747 73.143 73.143 73.143h146.286v36.571c0 20.198 16.374 36.571 36.571 36.571s36.571-16.374 36.571-36.571v-36.571h292.571v36.571c0 20.198 16.374 36.571 36.571 36.571s36.571-16.374 36.571-36.571v-36.571h182.857c40.396 0 73.143-32.747 73.143-73.143v-804.571c0-40.396-32.747-73.143-73.143-73.143zM841.143 813.714h-182.857v-36.571c0-20.198-16.374-36.571-36.571-36.571s-36.571 16.374-36.571 36.571v36.571h-292.571v-36.571c0-20.198-16.374-36.571-36.571-36.571s-36.571 16.374-36.571 36.571v36.571h-146.286v-182.857h768v182.857zM841.143 557.714h-768v-548.571h768v548.571zM457.143 257.097l201.399 190.537 73.143-69.303-274.615-259.657-274.615 259.657 73.143 69.303z" />
<glyph unicode="&#xe918;" glyph-name="remove_person" horiz-adv-x="1489" d="M506.182 896.826c107.497 0 221.51-90.496 221.51-158.057v-158.115c0-60.847-25.321-177.292-93.242-230.749-14.744-11.689-24.117-29.599-24.117-49.699 0-25.386 14.951-47.279 36.528-57.355l275.88-130.735c2.153-0.989 26.403-5.062 26.403-38.912v-61.754h-885.865v64.186c0 0.069-0.001 0.15-0.001 0.232 0 16.875 10.964 31.188 26.158 36.206l278.285 131.219c21.915 10.255 36.824 32.121 36.824 57.468 0 19.899-9.189 37.652-23.554 49.248-65.889 52.877-96.516 168.821-96.516 230.657v158.103c0 66.106 115.142 158.057 221.696 158.057zM506.17 960.105c-139.788 0-285.009-116.608-285.009-221.335v-158.115c0-69.085 31.546-208.873 120.076-279.913l-278.004-131.13s-63.232-28.183-63.232-63.255v-94.953c0-34.935 28.32-63.255 63.255-63.255 0.004 0 0.008 0 0.012 0h885.864c34.923 0.007 63.232 28.319 63.232 63.244 0 0.004 0 0.008 0 0.012v94.952c0 37.167-63.279 63.244-63.279 63.244l-275.479 130.618c87.703 68.992 117.376 204.509 117.376 280.436v158.115c0 104.727-145.036 221.335-284.812 221.335v0zM1227.636-64c-144.598 0-261.818 117.22-261.818 261.818s117.22 261.818 261.818 261.818c144.598 0 261.818-117.22 261.818-261.818-0.166-144.532-117.287-261.653-261.803-261.818zM1227.636 404.945c-114.393 0-207.127-92.734-207.127-207.127s92.734-207.127 207.127-207.127c114.393 0 207.127 92.734 207.127 207.127-0.146 114.335-92.793 206.982-207.113 207.127zM1344 168.727h-232.727c-16.066 0-29.091 13.024-29.091 29.091s13.024 29.091 29.091 29.091h232.727c16.066 0 29.091-13.024 29.091-29.091s-13.024-29.091-29.091-29.091z" />
<glyph unicode="&#xe919;" glyph-name="alarm" horiz-adv-x="1058" d="M78.558 594.641c-15.898-45.438-25.081-97.821-25.081-152.349 0-151.29 70.693-286.069 180.848-373.106l-84.486-86.273 47.070-47.070 94.526 94.526c68.112-40.017 150.024-63.652 237.456-63.652s169.343 23.635 239.694 64.864l92.3-95.738 47.070 47.070-85.498 85.51c111.155 87.799 181.848 222.578 181.848 373.868 0 54.528-9.183 106.911-26.087 155.687 49.079 34.387 79.678 92.49 79.678 157.739 0 112.796-91.439 204.235-204.235 204.235-62.733 0-118.86-28.284-156.324-72.795-50.205 19.183-108.033 30.479-168.499 30.479s-118.294-11.296-171.488-31.894c-34.479 46.067-90.693 74.451-153.537 74.451-112.796 0-204.235-91.439-204.235-204.235 0-65.388 30.728-123.599 78.533-160.98zM853.691 893.354c0.055 0 0.121 0 0.186 0 75.988 0 137.589-61.601 137.589-137.589 0-37.629-15.106-71.731-39.584-96.57-43.897 83.889-109.208 151.377-188.777 196.714 21.993 23.683 54.646 37.445 90.514 37.445 0.025 0 0.050 0 0.076 0zM528.945 851.003c0.004 0 0.008 0 0.012 0 225.785 0 408.82-183.035 408.82-408.82s-183.035-408.82-408.82-408.82c-225.785 0-408.82 183.035-408.82 408.82 0 0.017 0 0.034 0 0.051 0.295 225.65 183.153 408.495 408.782 408.769zM204.199 893.354c0.018 0 0.039 0 0.060 0 35.868 0 68.522-13.762 92.969-36.294-82.026-46.485-147.337-113.973-189.991-195.221-25.719 22.196-40.825 56.297-40.825 93.926 0 75.988 61.601 137.589 137.589 137.589 0.070 0 0.139 0 0.209 0zM734.496 408.86h-238.874v229.315h66.634v-162.621h172.24v-66.634z" />
<glyph unicode="&#xe91a;" glyph-name="lock" horiz-adv-x="854" d="M818.451-64.093h-782.962c-0.153-0.002-0.334-0.004-0.515-0.004-19.324 0-34.989 15.665-34.989 34.989 0 0.177 0.001 0.354 0.004 0.53v631.899c-0.002 0.153-0.004 0.334-0.004 0.515 0 19.324 15.665 34.989 34.989 34.989 0.181 0 0.362-0.001 0.543-0.004h127.125v51.512c-0.083 2.489-0.131 5.416-0.131 8.353 0 72.034 28.603 137.387 75.070 185.322 49.644 50.92 112.888 76.095 189.703 76.095 2.399 0.082 5.219 0.129 8.051 0.129 70.751 0 134.68-29.212 180.382-76.233 49.756-51.048 74.279-115.584 74.279-193.666v-51.512h128.455c19.538-0.17 35.331-15.963 35.5-35.484v-631.942c-0.176-19.533-15.967-35.319-35.484-35.489zM636.147 690.288c0 58.943-20.43 118.873-60.012 156.362-39.942 37.838-91.094 56.977-154.013 56.977-2.412 0.109-5.241 0.171-8.084 0.171-53.403 0-101.7-21.862-136.43-57.124-39.803-37.338-60.036-97.444-60.036-156.386v-54.059h418.609v54.012zM803.056 591.031h-752.171v-606.693h752.171v606.693zM383.656 382.482c11.317 10.368 26.46 16.722 43.087 16.722 0.1 0 0.201 0 0.301-0.001 16.271-0.011 31.070-6.375 42.037-16.748 11.396-9.209 18.71-23.137 18.959-38.781-1.143-23-15.602-42.316-35.766-50.509l-0.385-104.035c0.003-0.146 0.005-0.319 0.005-0.492 0-13.814-11.085-25.038-24.844-25.264-14.024 0.164-25.313 11.553-25.313 25.58 0 0.062 0 0.124 0.001 0.186v103.887c-20.7 8.367-35.377 27.584-37.047 50.413 0.162 15.893 7.493 29.846 18.867 38.965z" />
<glyph unicode="&#xe91b;" glyph-name="passport" horiz-adv-x="1548" d="M1516.777-63.86h-1485.871c-17.195 0.336-31.005 14.355-31.005 31.599 0 0.211 0.002 0.421 0.006 0.631v959.27c-0.003 0.175-0.005 0.381-0.005 0.588 0 17.248 13.807 31.272 30.972 31.621l1485.903 0.001c17.172-0.349 30.959-14.352 30.959-31.575 0-0.223-0.002-0.446-0.007-0.668l0.001-959.269c0.004-0.189 0.006-0.411 0.006-0.634 0-17.221-13.788-31.221-30.927-31.563zM1466.182 878.464h-1384.727v-861.009h1384.727v861.009zM244.049 416.733l209.769 155.38v131.631c-0.004 0.219-0.006 0.478-0.006 0.737 0 25.751 20.876 46.627 46.627 46.627s46.627-20.876 46.627-46.627c0-0.259-0.002-0.518-0.006-0.776l0.001-131.638 209.652-155.334c10.223-6.75 17.616-17.078 20.428-29.164l2.495-17.626c-0.040-17.752-14.44-32.128-32.198-32.128-0.025 0-0.049 0-0.074 0h-2.486c-8.037 0.027-15.372 3.006-20.983 7.91l-176.835 74.766v-167.284l36.515-29.091h-1.641c5.336-2.915 8.909-8.463 8.972-14.851-0.007-9.528-7.715-17.245-17.231-17.265h-149.134c-9.534 0.007-17.262 7.734-17.268 17.268 0.062 6.4 3.641 11.95 8.894 14.816l-1.447 0.045 37.236 29.661h1.862v166.726l-176.977-74.822c-5.573-4.871-12.909-7.851-20.94-7.878h-2.496c-0.035 0-0.075 0-0.116 0-17.758 0-32.158 14.376-32.198 32.124l2.479 17.307c2.875 12.409 10.268 22.736 20.313 29.376zM907.636 622.545h384c6.427 0 11.636-5.21 11.636-11.636v-34.909c0-6.427-5.21-11.636-11.636-11.636h-384c-6.427 0-11.636 5.21-11.636 11.636v34.909c0 6.427 5.21 11.636 11.636 11.636zM907.636 482.909h384c6.427 0 11.636-5.21 11.636-11.636v-34.909c0-6.427-5.21-11.636-11.636-11.636h-384c-6.427 0-11.636 5.21-11.636 11.636v34.909c0 6.427 5.21 11.636 11.636 11.636zM907.636 343.273h384c6.427 0 11.636-5.21 11.636-11.636v-34.909c0-6.427-5.21-11.636-11.636-11.636h-384c-6.427 0-11.636 5.21-11.636 11.636v34.909c0 6.427 5.21 11.636 11.636 11.636z" />
<glyph unicode="&#xe91c;" glyph-name="edit" horiz-adv-x="949" d="M938.956 292.634c-30.902-44.221-63.878-82.974-100.154-118.359l-0.167-91.927c0-18.509-15.004-33.513-33.513-33.513h-109.911l-81.339-81.357c-4.544-4.54-10.381-7.785-16.911-9.135l-108.566-21.707c-1.969-0.411-4.232-0.646-6.549-0.646-18.519 0-33.531 15.012-33.531 33.531 0 2.318 0.235 4.58 0.683 6.765l14.494 54.385h-429.78c-18.509 0-33.513 15.004-33.513 33.513v862.322c0 0.005 0 0.012 0 0.018 0 18.509 15.004 33.513 33.513 33.513h771.356c18.509 0 33.513-15.004 33.513-33.513 0-0.006 0-0.013 0-0.019v-490.992c11.952 2.979 5.649-0.781 13.641-8.791l86.679-86.679c6.081-6.070 9.842-14.461 9.842-23.731 0-9.243-3.74-17.612-9.789-23.678zM753.446 874.829h-668.002v-758.968h408.692l259.383 259.419v499.512zM741.894 268.911l-207.525-207.543-9.827-49.043 49.043 9.809 207.597 207.561zM828.591 355.627l-17.892-17.91-21.379-21.361 39.289-39.289 39.289 39.307zM188.216 388.485c0 18.509 15.004 33.513 33.513 33.513h393.234c18.509 0 33.513-15.004 33.513-33.513s-15.004-33.513-33.513-33.513h-393.234c-18.509 0-33.513 15.004-33.513 33.513zM614.927 477.871h-393.198c-18.18 0.437-32.751 15.278-32.751 33.522s14.571 33.085 32.71 33.521l393.275 0.001c18.18-0.437 32.751-15.278 32.751-33.522s-14.571-33.085-32.71-33.521zM559.072 600.769h-281.543c-0.232-0.006-0.506-0.009-0.78-0.009-18.519 0-33.531 15.012-33.531 33.531s15.012 33.531 33.531 33.531c0.274 0 0.548-0.003 0.821-0.010l281.503 0.001c18.18-0.437 32.751-15.278 32.751-33.522s-14.571-33.085-32.71-33.521z" />
<glyph unicode="&#xe91d;" glyph-name="quest_person" horiz-adv-x="1523" d="M1153.798 369.348c-22.555 0.099-44.625 1.8-66.208 4.995l-146.349-57.922c-25.347-31.937-45.893-24.774-45.893 16.024l73.843 73.843h5.963c-113.589 50.361-190.57 147.169-190.57 258.451 0 163.119 165.298 295.372 369.215 295.372s369.215-132.234 369.215-295.372-165.298-295.391-369.215-295.391zM1153.798 886.249c-163.138 0-295.372-99.171-295.372-221.529s132.234-221.529 295.372-221.529 295.372 99.171 295.372 221.529-132.253 221.529-295.372 221.529zM1291.423 619.639c-20.391 0-36.922 16.53-36.922 36.922s16.53 36.922 36.922 36.922c20.391 0 36.922-16.53 36.922-36.922s-16.53-36.922-36.922-36.922zM1162.197 619.639c-20.391 0-36.922 16.53-36.922 36.922s16.53 36.922 36.922 36.922c20.391 0 36.922-16.53 36.922-36.922s-16.53-36.922-36.922-36.922c-0.013 0-0.026 0-0.039 0zM1032.972 619.639c-20.391 0-36.922 16.53-36.922 36.922s16.53 36.922 36.922 36.922c20.391 0 36.922-16.53 36.922-36.922 0 0 0 0 0 0 0-20.391-16.53-36.922-36.922-36.922-0.019 0-0.039 0-0.058 0zM773.801-64h-772.287l-1.052 24.221c-0.222 3.471-0.462 6.923-0.462 10.43 0 152.707 72.182 293.434 212.76 359.486v0l3.212 1.495c12.018 5.538 24.424 10.467 36.922 14.769l4.098 1.44c5.889 1.994 12.147 3.951 18.461 5.741 7.975 2.289 16.209 4.375 24.497 6.203 4.283 0.905 8.566 1.754 12.923 2.511 3.895 0.72 7.864 1.44 11.833 2.086l1.717 0.222c5.797 0.923 11.612 1.717 17.464 2.326l6.369 0.572 2.548 0.185 5.538 0.443c8.916 0.667 19.313 1.047 29.799 1.047 9.618 0 19.162-0.32 28.62-0.95l14.094-1.187c4.523-0.498 8.88-1.108 13.236-1.754l1.514-0.185h0.148l1.514-0.24c5.243-0.757 10.449-1.643 15.618-2.621l2.068-0.406c3.009-0.517 6.055-1.108 9.027-1.698 8.769-1.846 17.279-4.080 25.697-6.48 5.538-1.588 11.076-3.231 16.449-4.984q10.32-3.397 20.307-7.384c6.129-2.363 12.129-4.874 18.11-7.55l2.492-1.108c143.92-64.871 218.317-206.834 218.317-361.979 0-3.692-0.222-7.144-0.462-10.707zM509.609 268.589l-0.794 0.351q-6.812 3.064-13.772 5.76c-4.855 1.846-9.729 3.692-14.769 5.261-3.895 1.274-7.901 2.455-11.926 3.692-6.092 1.717-12.239 3.304-18.461 4.652-2.012 0.425-4.154 0.831-6.295 1.218l-1.846 0.314c-3.803 0.702-7.606 1.348-11.39 1.846l-3.692 0.498c-3.028 0.425-5.538 0.757-8.012 1.034l-10.098 0.831c-6.332 0.503-13.711 0.79-21.156 0.79s-14.823-0.287-22.124-0.85l-9.407-0.826c-4.541-0.48-9.101-1.126-13.643-1.846l-1.237-0.222c-2.529-0.388-5.021-0.849-7.514-1.311-3.157-0.572-6.221-1.181-9.23-1.846-5.926-1.311-11.833-2.806-17.612-4.486-4.652-1.292-9.138-2.695-13.624-4.209l-2.621-0.923c-8.252-2.843-16.393-6.074-24.276-9.618l-0.277-0.406-3.249-1.255c-98.4-45.938-165.845-143.13-168.099-256.313l586.291-0.292c-2.21 114.718-71.062 212.832-169.357 257.42zM549.337 474.5l-10.153-7.754c-2.935-2.289-5.926-4.615-9.027-6.664-6.018-4.043-11.944-7.384-17.888-10.781l-3.452-2.012c-5.317-2.806-10.67-5.224-16.061-7.587l-1.754-0.849c-1.477-0.702-2.954-1.403-4.486-2.049-3.932-1.606-7.846-2.972-11.741-4.301l-5.446-1.846c-2.012-0.757-4.043-1.495-6.092-2.123-3.323-1.015-6.683-1.846-10.024-2.621l-6.794-1.68c-2.418-0.646-4.837-1.292-7.384-1.846-3.692-0.683-7.144-1.2-10.633-1.643l-6.203-0.923c-2.806-0.462-5.538-0.905-8.437-1.181-8.289-0.831-16.947-1.292-25.568-1.292h-2.012c-26.289 0.156-51.564 4.255-75.34 11.734-0.718 0.284-3.229 1.207-5.702 2.149l-6.443 2.289c-3.083 1.071-6.147 2.141-9.12 3.378-91.19 37.794-154.237 125.947-154.59 228.869 0 4.254 0.258 8.37 0.572 12.469l0.222 3.231c10.889 130.795 119.731 232.825 252.403 232.825 138.184 0 250.517-110.684 253.178-248.231l-0.125-2.316c-0.649-76.408-36.18-144.386-91.425-188.873zM388.211 833.544c-0.328 0.002-0.717 0.004-1.106 0.004-89.266 0-162.423-68.972-169.086-156.532l-0.238-3.379c-0.185-2.566-0.388-5.151-0.388-7.79 0.246-69.478 42.77-128.962 103.176-154.089 2.954-1.129 4.8-1.756 6.647-2.402l5.963-2.123c1.385-0.517 2.751-1.071 4.172-1.495 15.108-4.802 32.484-7.569 50.507-7.569 0.085 0 0.17 0 0.255 0h1.408c5.409 0 10.726 0.332 16.005 0.886 1.625 0.148 3.083 0.406 4.56 0.646l6.018 0.886c2.141 0.295 4.301 0.591 6.406 0.997 1.218 0.24 2.566 0.609 3.932 0.978l6.332 1.588c1.975 0.48 3.969 0.941 5.926 1.532 0.997 0.295 2.031 0.702 3.046 1.071l5.243 1.846c2.511 0.868 5.040 1.717 7.384 2.695l4.209 1.994c3.692 1.643 7.384 3.249 10.763 5.058l2.271 1.348c4.098 2.271 8.123 4.56 11.944 7.107 2.105 1.44 3.803 2.769 5.538 4.117l7.532 5.631c37.945 30.608 62.081 77.018 62.323 129.074v1.684c-1.708 92.177-76.833 166.246-169.258 166.246-0.522 0-1.044-0.002-1.566-0.007z" />
<glyph unicode="&#xe91e;" glyph-name="alert_bg" d="M512 960c-282.77 0-512-229.23-512-512s229.23-512 512-512c282.77 0 512 229.23 512 512-0.325 282.638-229.361 511.674-511.968 512zM551.394 152.606c0-21.757-17.637-39.394-39.394-39.394s-39.394 17.637-39.394 39.394v39.394c0 21.757 17.637 39.394 39.394 39.394s39.394-17.637 39.394-39.394v-39.394zM551.394 310.152c0-21.757-17.637-39.394-39.394-39.394s-39.394 17.637-39.394 39.394v433.242c0 21.757 17.637 39.394 39.394 39.394s39.394-17.637 39.394-39.394v-433.242z" />
<glyph unicode="&#xe929;" d="M620.7 521.3l-18.2 18.2c-1.5 1.6-2.5 3.7-2.5 6.1s1 4.5 2.5 6.1l78.9 78.9c1.6 1.5 3.7 2.5 6.1 2.5s4.5-1 6.1-2.5l18.2-18.2c1.5-1.6 2.5-3.7 2.5-6.1s-1-4.5-2.5-6.1l-78.9-78.9c-1.6-1.5-3.7-2.5-6.1-2.5s-4.6 1-6.1 2.5v0z" />
<glyph unicode="&#xe92a;" d="M499.1 701.8h25.8c4.8 0 8.6-3.9 8.6-8.6v-111.9c0-4.8-3.9-8.6-8.6-8.6h-25.8c-4.8 0-8.6 3.9-8.6 8.6v111.9c0 4.8 3.8 8.6 8.6 8.6v0 0z" />
<glyph unicode="&#xe92b;" glyph-name="couponadd" horiz-adv-x="1589" d="M1555.88-64h-1093.597l-66.489 68.82-66.419-68.82h-296.254c-18.38 0.391-33.129 15.383-33.129 33.82 0 0.263 0.003 0.526 0.009 0.788l-0.001 954.788c-0.005 0.223-0.008 0.485-0.008 0.749 0 18.456 14.766 33.464 33.128 33.855l296.29 0.001 66.419-68.89 66.454 68.89h1093.597c18.41-0.354 33.198-15.36 33.198-33.821 0-0.226-0.002-0.451-0.007-0.675l0.001-954.793c0.008-0.275 0.013-0.599 0.013-0.923 0-18.456-14.796-33.457-33.173-33.786zM1492.886 859.825h-1003.096l-93.961-97.386-93.926 97.386h-205.753v-824.002h205.718l93.926 97.457 93.961-97.457h1003.096v824.143zM1251.257 657.955c53.679-53.676 86.881-127.831 86.881-209.74 0-163.811-132.795-296.607-296.607-296.607s-296.607 132.795-296.607 296.607c0 81.909 33.202 156.064 86.881 209.74 53.682 53.713 127.859 86.938 209.797 86.938 81.867 0 155.988-33.168 209.657-86.798zM869.553 427.096c-0.001-0.052-0.001-0.114-0.001-0.177 0-7.801 6.324-14.124 14.124-14.124 0 0 0.001 0 0.001 0h121.362v-121.326c-0.001-0.052-0.001-0.114-0.001-0.177 0-7.801 6.324-14.124 14.124-14.124 0 0 0.001 0 0.001 0h42.831c0 0 0.001 0 0.001 0 7.801 0 14.124 6.324 14.124 14.124 0 0.062 0 0.124-0.001 0.186v121.317h121.362c0 0 0.001 0 0.001 0 7.801 0 14.124 6.324 14.124 14.124 0 0.062 0 0.124-0.001 0.186v42.822c0 7.801-6.324 14.124-14.124 14.124h-120.938v121.362c0 7.801-6.324 14.124-14.124 14.124h-42.973c-7.801 0-14.124-6.324-14.124-14.124v-121.362h-121.503c-7.801 0-14.124-6.324-14.124-14.124v-42.831zM395.829 206.795c-0.358-0.013-0.778-0.021-1.201-0.021-19.014 0-34.428 15.414-34.428 34.428s15.414 34.428 34.428 34.428c19.006 0 34.416-15.402 34.428-34.406 0.002-0.139 0.003-0.302 0.003-0.465 0-18.485-14.826-33.507-33.236-33.822zM395.829 344.505c-0.369-0.014-0.801-0.022-1.236-0.022-19.033 0-34.463 15.43-34.463 34.463s15.43 34.463 34.463 34.463c19.033 0 34.463-15.43 34.463-34.463 0-0.017 0-0.034 0-0.051 0.001-0.104 0.002-0.23 0.002-0.356 0-18.491-14.822-33.521-33.233-33.857zM395.829 482.216c-0.369-0.014-0.801-0.022-1.236-0.022-19.033 0-34.463 15.43-34.463 34.463s15.43 34.463 34.463 34.463c19.033 0 34.463-15.43 34.463-34.463 0-0.005 0-0.009 0-0.014 0.001-0.106 0.002-0.232 0.002-0.358 0-18.491-14.822-33.521-33.233-33.857zM395.829 619.926c-0.369-0.014-0.801-0.022-1.236-0.022-19.033 0-34.463 15.43-34.463 34.463s15.43 34.463 34.463 34.463c19.033 0 34.463-15.43 34.463-34.463 0-0.005 0-0.009 0-0.014 0.001-0.106 0.002-0.231 0.002-0.357 0-18.484-14.826-33.506-33.235-33.822z" />
</font>
</defs>
</svg>
