<?xml version="1.0" encoding="utf-8"?>
<!-- Generator: Adobe Illustrator 16.0.0, SVG Export Plug-In . SVG Version: 6.00 Build 0)  -->
<!DOCTYPE svg PUBLIC "-//W3C//DTD SVG 1.1//EN" "http://www.w3.org/Graphics/SVG/1.1/DTD/svg11.dtd">
<svg version="1.1" id="Anyone_can_save_the_earth_with_your_galaxy_1_"
	 xmlns="http://www.w3.org/2000/svg" xmlns:xlink="http://www.w3.org/1999/xlink" x="0px" y="0px" width="323px" height="18px"
	 viewBox="0 0 323 18" enable-background="new 0 0 323 18" xml:space="preserve">
<g>
	<path fill="#FFFFFF" d="M7.119,10.435H2.661l-1.224,3.715H0.082L4.164,2.377h1.485l4.098,11.772H8.311L7.119,10.435z M6.776,9.389
		L6.155,7.475C5.698,6.14,5.323,4.87,4.915,3.486H4.849C4.457,4.886,4.065,6.14,3.625,7.475l-0.62,1.914H6.776z"/>
	<path fill="#FFFFFF" d="M11.362,5.465h1.077l0.131,1.271h0.049c0.849-0.82,1.764-1.496,2.972-1.496
		c1.845,0,2.694,1.174,2.694,3.393v5.517h-1.339V8.794c0-1.673-0.522-2.413-1.747-2.413c-0.931,0-1.6,0.482-2.514,1.416v6.353
		h-1.322V5.465z"/>
	<path fill="#FFFFFF" d="M20.242,17.768l0.277-1.061c0.18,0.063,0.441,0.128,0.686,0.128c1.012,0,1.665-0.836,2.057-1.962
		l0.196-0.676l-3.559-8.732h1.388l1.877,4.97c0.278,0.756,0.588,1.656,0.882,2.444h0.082c0.245-0.788,0.506-1.688,0.751-2.444
		l1.649-4.97h1.306l-3.363,9.488c-0.588,1.657-1.502,2.992-3.216,2.992C20.862,17.945,20.519,17.881,20.242,17.768z"/>
	<path fill="#FFFFFF" d="M28.845,9.823c0-2.911,1.894-4.583,4.049-4.583c2.155,0,4.065,1.672,4.065,4.583
		c0,2.862-1.911,4.535-4.065,4.535C30.739,14.358,28.845,12.686,28.845,9.823z M35.588,9.823c0-2.075-1.11-3.474-2.694-3.474
		c-1.584,0-2.678,1.399-2.678,3.474c0,2.059,1.094,3.441,2.678,3.441C34.478,13.265,35.588,11.882,35.588,9.823z"/>
	<path fill="#FFFFFF" d="M39.357,5.465h1.077l0.131,1.271h0.049c0.849-0.82,1.763-1.496,2.972-1.496
		c1.845,0,2.694,1.174,2.694,3.393v5.517h-1.339V8.794c0-1.673-0.522-2.413-1.747-2.413c-0.931,0-1.6,0.482-2.514,1.416v6.353
		h-1.322V5.465z"/>
	<path fill="#FFFFFF" d="M48.547,9.823c0-2.831,1.91-4.583,3.935-4.583c2.204,0,3.478,1.56,3.478,4.069
		c0,0.289-0.017,0.579-0.065,0.788H49.87c0.082,1.93,1.257,3.217,3.021,3.217c0.865,0,1.583-0.273,2.237-0.708l0.49,0.868
		c-0.768,0.482-1.666,0.885-2.89,0.885C50.409,14.358,48.547,12.67,48.547,9.823z M54.784,9.147c0-1.865-0.849-2.847-2.286-2.847
		c-1.306,0-2.465,1.045-2.645,2.847H54.784z"/>
	<path fill="#FFFFFF" d="M61.149,9.823c0-2.911,1.959-4.583,4.196-4.583c1.159,0,1.959,0.482,2.58,1.045l-0.702,0.868
		c-0.522-0.482-1.094-0.804-1.829-0.804c-1.649,0-2.874,1.399-2.874,3.474c0,2.059,1.143,3.441,2.841,3.441
		c0.833,0,1.584-0.401,2.139-0.885l0.588,0.869c-0.784,0.691-1.763,1.109-2.841,1.109C62.929,14.358,61.149,12.686,61.149,9.823z"/>
	<path fill="#FFFFFF" d="M69.344,11.914c0-1.897,1.682-2.831,5.47-3.249c0.016-1.174-0.359-2.332-1.878-2.332
		c-1.061,0-2.008,0.499-2.677,0.965L69.72,6.381c0.768-0.499,2.008-1.142,3.429-1.142c2.139,0,2.988,1.431,2.988,3.522v5.388h-1.094
		l-0.114-1.062h-0.049c-0.849,0.708-1.861,1.271-2.972,1.271C70.455,14.358,69.344,13.49,69.344,11.914z M74.814,12.091V9.55
		c-3.119,0.354-4.18,1.094-4.18,2.284c0,1.045,0.734,1.463,1.633,1.463C73.165,13.297,73.916,12.879,74.814,12.091z"/>
	<path fill="#FFFFFF" d="M79.041,5.465h1.077l0.131,1.271h0.049c0.849-0.82,1.763-1.496,2.972-1.496
		c1.845,0,2.694,1.174,2.694,3.393v5.517h-1.339V8.794c0-1.673-0.522-2.413-1.747-2.413c-0.931,0-1.6,0.482-2.514,1.416v6.353
		h-1.322V5.465z"/>
	<path fill="#FFFFFF" d="M91.528,13.168l0.669-0.884c0.768,0.627,1.551,1.045,2.661,1.045c1.225,0,1.829-0.644,1.829-1.447
		c0-0.933-1.061-1.351-2.057-1.705c-1.257-0.45-2.661-1.029-2.661-2.509c0-1.351,1.094-2.428,2.988-2.428
		c1.045,0,2.008,0.434,2.678,0.965l-0.637,0.853c-0.604-0.435-1.241-0.772-2.041-0.772c-1.176,0-1.714,0.611-1.714,1.318
		c0,0.869,0.979,1.207,1.992,1.561c1.29,0.498,2.727,0.997,2.727,2.653c0,1.383-1.11,2.541-3.151,2.541
		C93.553,14.358,92.361,13.844,91.528,13.168z"/>
	<path fill="#FFFFFF" d="M99.543,11.914c0-1.897,1.682-2.831,5.47-3.249c0.016-1.174-0.359-2.332-1.878-2.332
		c-1.061,0-2.008,0.499-2.677,0.965l-0.539-0.917c0.768-0.499,2.008-1.142,3.429-1.142c2.139,0,2.988,1.431,2.988,3.522v5.388
		h-1.094l-0.114-1.062h-0.049c-0.849,0.708-1.861,1.271-2.972,1.271C100.654,14.358,99.543,13.49,99.543,11.914z M105.013,12.091
		V9.55c-3.119,0.354-4.18,1.094-4.18,2.284c0,1.045,0.734,1.463,1.633,1.463C103.364,13.297,104.115,12.879,105.013,12.091z"/>
	<path fill="#FFFFFF" d="M107.901,5.465h1.388l1.747,5.05c0.261,0.853,0.555,1.737,0.833,2.558h0.065
		c0.261-0.82,0.571-1.705,0.833-2.558l1.747-5.05h1.306l-3.151,8.685h-1.551L107.901,5.465z"/>
	<path fill="#FFFFFF" d="M116.831,9.823c0-2.831,1.91-4.583,3.935-4.583c2.204,0,3.478,1.56,3.478,4.069
		c0,0.289-0.017,0.579-0.065,0.788h-6.024c0.082,1.93,1.257,3.217,3.021,3.217c0.865,0,1.583-0.273,2.237-0.708l0.49,0.868
		c-0.768,0.482-1.666,0.885-2.89,0.885C118.692,14.358,116.831,12.67,116.831,9.823z M123.067,9.147
		c0-1.865-0.849-2.847-2.286-2.847c-1.306,0-2.465,1.045-2.645,2.847H123.067z"/>
	<path fill="#FFFFFF" d="M130.363,11.528V6.542h-1.339V5.545l1.388-0.08l0.147-2.461h1.127v2.461h2.433v1.078h-2.433v5.034
		c0,1.062,0.326,1.705,1.388,1.705c0.327,0,0.734-0.113,1.028-0.226l0.261,0.981c-0.49,0.16-1.078,0.321-1.567,0.321
		C130.951,14.358,130.363,13.232,130.363,11.528z"/>
	<path fill="#FFFFFF" d="M136.142,1.348h1.322v3.554l-0.049,1.817c0.849-0.804,1.747-1.479,2.955-1.479
		c1.845,0,2.694,1.174,2.694,3.393v5.517h-1.339V8.794c0-1.673-0.522-2.413-1.747-2.413c-0.931,0-1.6,0.482-2.514,1.416v6.353
		h-1.322V1.348z"/>
	<path fill="#FFFFFF" d="M145.283,9.823c0-2.831,1.91-4.583,3.935-4.583c2.204,0,3.478,1.56,3.478,4.069
		c0,0.289-0.017,0.579-0.065,0.788h-6.024c0.082,1.93,1.257,3.217,3.021,3.217c0.865,0,1.583-0.273,2.237-0.708l0.49,0.868
		c-0.768,0.482-1.666,0.885-2.89,0.885C147.144,14.358,145.283,12.67,145.283,9.823z M151.52,9.147c0-1.865-0.849-2.847-2.286-2.847
		c-1.306,0-2.465,1.045-2.645,2.847H151.52z"/>
	<path fill="#FFFFFF" d="M157.885,9.823c0-2.831,1.91-4.583,3.935-4.583c2.204,0,3.477,1.56,3.477,4.069
		c0,0.289-0.016,0.579-0.064,0.788h-6.025c0.082,1.93,1.257,3.217,3.021,3.217c0.865,0,1.582-0.273,2.236-0.708l0.49,0.868
		c-0.768,0.482-1.666,0.885-2.891,0.885C159.746,14.358,157.885,12.67,157.885,9.823z M164.121,9.147
		c0-1.865-0.848-2.847-2.285-2.847c-1.306,0-2.465,1.045-2.645,2.847H164.121z"/>
	<path fill="#FFFFFF" d="M166.699,11.914c0-1.897,1.682-2.831,5.471-3.249c0.016-1.174-0.359-2.332-1.879-2.332
		c-1.061,0-2.008,0.499-2.678,0.965l-0.537-0.917c0.766-0.499,2.008-1.142,3.428-1.142c2.139,0,2.988,1.431,2.988,3.522v5.388
		h-1.094l-0.115-1.062h-0.049c-0.85,0.708-1.861,1.271-2.971,1.271C167.811,14.358,166.699,13.49,166.699,11.914z M172.17,12.091
		V9.55c-3.119,0.354-4.18,1.094-4.18,2.284c0,1.045,0.734,1.463,1.633,1.463C170.52,13.297,171.271,12.879,172.17,12.091z"/>
	<path fill="#FFFFFF" d="M176.396,5.465h1.078l0.129,1.592h0.051c0.604-1.094,1.502-1.817,2.498-1.817
		c0.375,0,0.637,0.048,0.93,0.193l-0.262,1.142c-0.293-0.096-0.49-0.145-0.832-0.145c-0.752,0-1.666,0.547-2.27,2.059v5.661h-1.322
		V5.465z"/>
	<path fill="#FFFFFF" d="M182.828,11.528V6.542h-1.34V5.545l1.389-0.08l0.146-2.461h1.127v2.461h2.432v1.078h-2.432v5.034
		c0,1.062,0.326,1.705,1.387,1.705c0.328,0,0.736-0.113,1.029-0.226l0.262,0.981c-0.49,0.16-1.078,0.321-1.568,0.321
		C183.416,14.358,182.828,13.232,182.828,11.528z"/>
	<path fill="#FFFFFF" d="M188.605,1.348h1.322v3.554l-0.049,1.817c0.85-0.804,1.748-1.479,2.955-1.479
		c1.846,0,2.695,1.174,2.695,3.393v5.517h-1.34V8.794c0-1.673-0.521-2.413-1.746-2.413c-0.932,0-1.6,0.482-2.516,1.416v6.353h-1.322
		V1.348z"/>
	<path fill="#FFFFFF" d="M200.963,5.465h1.355l1.389,5.162c0.195,0.82,0.359,1.593,0.539,2.396h0.064
		c0.213-0.804,0.393-1.576,0.621-2.396l1.42-5.162h1.34l1.436,5.162c0.213,0.82,0.408,1.593,0.621,2.396h0.064
		c0.197-0.804,0.359-1.576,0.572-2.396l1.355-5.162h1.273l-2.418,8.685h-1.615l-1.34-4.841c-0.244-0.836-0.408-1.625-0.619-2.509
		h-0.082c-0.195,0.884-0.375,1.705-0.637,2.524l-1.289,4.825h-1.568L200.963,5.465z"/>
	<path fill="#FFFFFF" d="M214.691,2.714c0-0.563,0.408-0.9,0.965-0.9c0.521,0,0.963,0.338,0.963,0.9
		c0,0.515-0.441,0.885-0.963,0.885C215.1,3.599,214.691,3.229,214.691,2.714z M214.986,5.465h1.322v8.685h-1.322V5.465z"/>
	<path fill="#FFFFFF" d="M219.621,11.528V6.542h-1.338V5.545l1.387-0.08l0.148-2.461h1.125v2.461h2.434v1.078h-2.434v5.034
		c0,1.062,0.328,1.705,1.389,1.705c0.326,0,0.734-0.113,1.029-0.226l0.26,0.981c-0.488,0.16-1.076,0.321-1.566,0.321
		C220.209,14.358,219.621,13.232,219.621,11.528z"/>
	<path fill="#FFFFFF" d="M225.4,1.348h1.322v3.554l-0.049,1.817c0.85-0.804,1.746-1.479,2.955-1.479
		c1.846,0,2.693,1.174,2.693,3.393v5.517h-1.338V8.794c0-1.673-0.523-2.413-1.748-2.413c-0.93,0-1.6,0.482-2.514,1.416v6.353H225.4
		V1.348z"/>
	<path fill="#FFFFFF" d="M237.871,17.768l0.277-1.061c0.18,0.063,0.441,0.128,0.686,0.128c1.012,0,1.666-0.836,2.057-1.962
		l0.197-0.676l-3.561-8.732h1.389l1.877,4.97c0.277,0.756,0.588,1.656,0.883,2.444h0.08c0.246-0.788,0.508-1.688,0.752-2.444
		l1.648-4.97h1.307l-3.363,9.488c-0.588,1.657-1.502,2.992-3.217,2.992C238.492,17.945,238.148,17.881,237.871,17.768z"/>
	<path fill="#FFFFFF" d="M246.475,9.823c0-2.911,1.893-4.583,4.049-4.583c2.154,0,4.064,1.672,4.064,4.583
		c0,2.862-1.91,4.535-4.064,4.535C248.367,14.358,246.475,12.686,246.475,9.823z M253.217,9.823c0-2.075-1.109-3.474-2.693-3.474
		s-2.678,1.399-2.678,3.474c0,2.059,1.094,3.441,2.678,3.441S253.217,11.882,253.217,9.823z"/>
	<path fill="#FFFFFF" d="M256.857,10.981V5.465h1.322v5.355c0,1.673,0.506,2.396,1.746,2.396c0.932,0,1.6-0.467,2.482-1.528V5.465
		h1.322v8.685h-1.094l-0.115-1.383h-0.049c-0.832,0.948-1.715,1.592-2.939,1.592C257.689,14.358,256.857,13.2,256.857,10.981z"/>
	<path fill="#FFFFFF" d="M266.813,5.465h1.078l0.131,1.592h0.049c0.604-1.094,1.502-1.817,2.498-1.817
		c0.375,0,0.637,0.048,0.932,0.193l-0.262,1.142c-0.295-0.096-0.49-0.145-0.834-0.145c-0.75,0-1.664,0.547-2.27,2.059v5.661h-1.322
		V5.465z"/>
	<path fill="#FFFFFF" d="M275.938,15.838c0-0.739,0.49-1.463,1.307-1.994v-0.064c-0.457-0.273-0.799-0.739-0.799-1.432
		c0-0.724,0.537-1.286,0.979-1.607v-0.064c-0.57-0.45-1.143-1.303-1.143-2.332c0-1.882,1.486-3.104,3.266-3.104
		c0.49,0,0.914,0.112,1.225,0.225h3.053v1.013h-1.861c0.441,0.418,0.768,1.094,0.768,1.881c0,1.85-1.404,3.04-3.184,3.04
		c-0.441,0-0.947-0.112-1.355-0.322c-0.326,0.273-0.588,0.596-0.588,1.094c0,0.563,0.359,0.981,1.568,0.981h1.762
		c2.025,0,3.037,0.627,3.037,2.059c0,1.576-1.713,2.976-4.391,2.976C277.408,18.187,275.938,17.334,275.938,15.838z M282.664,15.404
		c0-0.853-0.637-1.143-1.844-1.143h-1.617c-0.277,0-0.719-0.048-1.125-0.145c-0.67,0.467-0.965,1.029-0.965,1.561
		c0,0.965,0.98,1.592,2.646,1.592C281.521,17.27,282.664,16.337,282.664,15.404z M281.521,8.344c0-1.319-0.896-2.123-1.975-2.123
		c-1.094,0-1.977,0.788-1.977,2.123c0,1.303,0.914,2.155,1.977,2.155C280.607,10.499,281.521,9.646,281.521,8.344z"/>
	<path fill="#FFFFFF" d="M284.885,11.914c0-1.897,1.682-2.831,5.469-3.249c0.018-1.174-0.359-2.332-1.877-2.332
		c-1.061,0-2.008,0.499-2.678,0.965l-0.539-0.917c0.768-0.499,2.008-1.142,3.43-1.142c2.139,0,2.986,1.431,2.986,3.522v5.388h-1.094
		l-0.113-1.062h-0.049c-0.85,0.708-1.861,1.271-2.973,1.271C285.994,14.358,284.885,13.49,284.885,11.914z M290.354,12.091V9.55
		c-3.117,0.354-4.18,1.094-4.18,2.284c0,1.045,0.734,1.463,1.633,1.463S289.455,12.879,290.354,12.091z"/>
	<path fill="#FFFFFF" d="M294.58,12.558V1.348h1.322v11.306c0,0.435,0.18,0.611,0.408,0.611c0.082,0,0.148,0,0.311-0.032
		l0.197,1.014c-0.213,0.064-0.426,0.112-0.801,0.112C295.006,14.358,294.58,13.715,294.58,12.558z"/>
	<path fill="#FFFFFF" d="M298.563,11.914c0-1.897,1.682-2.831,5.471-3.249c0.016-1.174-0.359-2.332-1.879-2.332
		c-1.061,0-2.008,0.499-2.678,0.965l-0.537-0.917c0.766-0.499,2.008-1.142,3.428-1.142c2.139,0,2.988,1.431,2.988,3.522v5.388
		h-1.094l-0.115-1.062h-0.049c-0.85,0.708-1.861,1.271-2.971,1.271C299.674,14.358,298.563,13.49,298.563,11.914z M304.033,12.091
		V9.55c-3.119,0.354-4.18,1.094-4.18,2.284c0,1.045,0.734,1.463,1.633,1.463C302.383,13.297,303.135,12.879,304.033,12.091z"/>
	<path fill="#FFFFFF" d="M309.875,9.614l-2.693-4.149h1.438l1.24,1.978c0.277,0.482,0.588,0.965,0.898,1.447h0.064
		c0.277-0.482,0.539-0.965,0.816-1.447l1.16-1.978h1.371l-2.678,4.278l2.906,4.406h-1.453l-1.355-2.106
		c-0.311-0.531-0.637-1.062-0.963-1.576h-0.082c-0.326,0.515-0.619,1.045-0.93,1.576l-1.258,2.106h-1.404L309.875,9.614z"/>
	<path fill="#FFFFFF" d="M315.197,17.768l0.277-1.061c0.18,0.063,0.441,0.128,0.686,0.128c1.012,0,1.666-0.836,2.057-1.962
		l0.197-0.676l-3.561-8.732h1.389l1.877,4.97c0.277,0.756,0.588,1.656,0.883,2.444h0.08c0.246-0.788,0.508-1.688,0.752-2.444
		l1.648-4.97h1.307l-3.363,9.488c-0.588,1.657-1.502,2.992-3.217,2.992C315.818,17.945,315.475,17.881,315.197,17.768z"/>
</g>
</svg>
