<?xml version="1.0" encoding="utf-8"?>
<!-- Generator: Adobe Illustrator 16.0.0, SVG Export Plug-In . SVG Version: 6.00 Build 0)  -->
<!DOCTYPE svg PUBLIC "-//W3C//DTD SVG 1.1//EN" "http://www.w3.org/Graphics/SVG/1.1/DTD/svg11.dtd">
<svg version="1.1" id="Galaxy__x0D_UpcyCling" xmlns="http://www.w3.org/2000/svg" xmlns:xlink="http://www.w3.org/1999/xlink"
	 x="0px" y="0px" width="116px" height="34px" viewBox="0 0 116 34" enable-background="new 0 0 116 34" xml:space="preserve">
<g>
	<path fill="#8DC73F" d="M6.98,6.782h5.428v7.463c-0.888,0.292-1.741,0.499-2.558,0.621c-0.817,0.122-1.7,0.183-2.648,0.183
		c-2.233,0-3.955-0.666-5.166-1.998C0.826,11.719,0.22,9.839,0.22,7.413c0-2.393,0.683-4.266,2.048-5.618
		c1.365-1.352,3.245-2.028,5.64-2.028c1.54,0,3,0.298,4.379,0.895L11.44,2.684c-1.197-0.556-2.395-0.833-3.592-0.833
		c-1.574,0-2.818,0.498-3.733,1.495C3.2,4.342,2.743,5.704,2.743,7.433c0,1.816,0.412,3.198,1.236,4.144
		c0.824,0.946,2.01,1.418,3.557,1.418c0.78,0,1.614-0.098,2.502-0.295V8.867H6.98V6.782z"/>
	<path fill="#8DC73F" d="M32.537,14.846l-1.473-4.128h-5.64l-1.443,4.128h-2.542l5.519-14.927h2.623L35.1,14.846H32.537z
		 M30.428,8.623l-1.382-4.047c-0.101-0.271-0.241-0.698-0.418-1.281c-0.179-0.583-0.301-1.01-0.369-1.281
		c-0.182,0.834-0.447,1.746-0.797,2.735L26.13,8.623H30.428z"/>
	<path fill="#8DC73F" d="M44.824,14.846V-0.021h2.412v12.782h6.245v2.084H44.824z"/>
	<path fill="#8DC73F" d="M72.414,14.846l-1.473-4.128h-5.641l-1.441,4.128h-2.543l5.518-14.927h2.625l5.518,14.927H72.414z
		 M70.307,8.623l-1.383-4.047c-0.102-0.271-0.24-0.698-0.42-1.281c-0.178-0.583-0.301-1.01-0.367-1.281
		c-0.182,0.834-0.447,1.746-0.797,2.735l-1.332,3.874H70.307z"/>
	<path fill="#8DC73F" d="M95.568,14.846h-2.775l-3.691-6.081l-3.725,6.081h-2.582l4.893-7.708l-4.58-7.159h2.684l3.41,5.623
		l3.41-5.623h2.604l-4.611,7.199L95.568,14.846z"/>
	<path fill="#8DC73F" d="M109.309,6.762l3.49-6.782h2.623l-4.914,9.101v5.766h-2.42V9.162l-4.895-9.182h2.623L109.309,6.762z"/>
	<path fill="#8DC73F" d="M12.375,18.49v9.619c0,1.1-0.231,2.061-0.694,2.883c-0.463,0.824-1.132,1.459-2.008,1.902
		c-0.875,0.443-1.923,0.666-3.142,0.666c-1.812,0-3.22-0.488-4.226-1.465C1.3,31.119,0.798,29.777,0.798,28.07v-9.58h2.397v9.406
		c0,1.227,0.28,2.133,0.839,2.715c0.56,0.584,1.418,0.875,2.578,0.875c2.251,0,3.376-1.203,3.376-3.609V18.49H12.375z"/>
	<path fill="#8DC73F" d="M26.007,22.984c0,1.553-0.5,2.742-1.499,3.57c-0.999,0.826-2.421,1.24-4.266,1.24h-1.519v5.563h-2.387
		V18.49h4.206c1.825,0,3.191,0.381,4.101,1.139C25.552,20.389,26.007,21.508,26.007,22.984z M18.724,25.75h1.269
		c1.226,0,2.125-0.217,2.697-0.65s0.859-1.111,0.859-2.033c0-0.854-0.256-1.49-0.77-1.912c-0.513-0.42-1.312-0.629-2.397-0.629
		h-1.658V25.75z"/>
	<path fill="#8DC73F" d="M35.959,20.361c-1.372,0-2.451,0.496-3.237,1.484c-0.786,0.99-1.179,2.355-1.179,4.098
		c0,1.824,0.378,3.203,1.134,4.139s1.85,1.404,3.282,1.404c0.619,0,1.219-0.063,1.798-0.189c0.58-0.125,1.182-0.285,1.809-0.482
		v2.084c-1.146,0.441-2.444,0.662-3.896,0.662c-2.138,0-3.78-0.66-4.925-1.979s-1.718-3.205-1.718-5.658
		c0-1.545,0.278-2.898,0.834-4.057c0.556-1.16,1.36-2.047,2.413-2.664c1.052-0.617,2.288-0.926,3.706-0.926
		c1.492,0,2.87,0.318,4.136,0.955l-0.859,2.023c-0.493-0.236-1.014-0.445-1.563-0.625C37.143,20.451,36.565,20.361,35.959,20.361z"
		/>
	<path fill="#8DC73F" d="M47.281,25.273l3.457-6.783h2.597l-4.865,9.102v5.766h-2.397v-5.686l-4.845-9.182h2.597L47.281,25.273z"/>
	<path fill="#8DC73F" d="M61.777,20.361c-1.371,0-2.451,0.496-3.236,1.484c-0.786,0.99-1.179,2.355-1.179,4.098
		c0,1.824,0.378,3.203,1.134,4.139s1.85,1.404,3.281,1.404c0.619,0,1.219-0.063,1.799-0.189c0.58-0.125,1.182-0.285,1.809-0.482
		v2.084c-1.146,0.441-2.445,0.662-3.896,0.662c-2.139,0-3.78-0.66-4.925-1.979s-1.718-3.205-1.718-5.658
		c0-1.545,0.278-2.898,0.834-4.057c0.556-1.16,1.36-2.047,2.413-2.664s2.287-0.926,3.705-0.926c1.492,0,2.871,0.318,4.137,0.955
		l-0.859,2.023c-0.492-0.236-1.014-0.445-1.563-0.625C62.961,20.451,62.383,20.361,61.777,20.361z"/>
	<path fill="#8DC73F" d="M68.973,33.357V18.49h2.389v12.781h6.184v2.086H68.973z"/>
	<path fill="#8DC73F" d="M80.383,33.357V18.49h2.387v14.867H80.383z"/>
	<path fill="#8DC73F" d="M98.959,33.357h-2.928L88.85,21.512h-0.08l0.051,0.66c0.092,1.26,0.139,2.414,0.139,3.457v7.729h-2.168
		V18.49h2.898l7.162,11.785h0.061c-0.014-0.156-0.041-0.723-0.08-1.703c-0.041-0.979-0.061-1.744-0.061-2.293V18.49h2.188V33.357z"
		/>
	<path fill="#8DC73F" d="M109.174,25.293h5.375v7.465c-0.879,0.291-1.723,0.498-2.531,0.619c-0.811,0.123-1.684,0.184-2.623,0.184
		c-2.211,0-3.916-0.666-5.115-1.998c-1.197-1.332-1.797-3.211-1.797-5.639c0-2.393,0.676-4.266,2.027-5.617
		c1.352-1.354,3.213-2.029,5.584-2.029c1.525,0,2.971,0.299,4.336,0.895l-0.84,2.023c-1.186-0.555-2.371-0.834-3.557-0.834
		c-1.559,0-2.789,0.498-3.695,1.496c-0.906,0.996-1.359,2.357-1.359,4.086c0,1.818,0.408,3.199,1.225,4.145
		c0.814,0.945,1.988,1.418,3.521,1.418c0.771,0,1.598-0.098,2.477-0.295v-3.834h-3.027V25.293z"/>
</g>
</svg>
